<?xml version="1.0" standalone="no"?>
<!DOCTYPE svg PUBLIC "-//W3C//DTD SVG 20010904//EN"
 "http://www.w3.org/TR/2001/REC-SVG-20010904/DTD/svg10.dtd">
<svg version="1.0" xmlns="http://www.w3.org/2000/svg"
 width="1280.000000pt" height="871.000000pt" viewBox="0 0 1280.000000 871.000000"
 preserveAspectRatio="xMidYMid meet">
<metadata>
Created by potrace 1.15, written by Peter Selinger 2001-2017
</metadata>
<g transform="translate(0.000000,871.000000) scale(0.100000,-0.100000)"
fill="#000000" stroke="none">
<path d="M2726 8669 c-11 -56 -6 -135 11 -188 l16 -52 -24 -16 c-48 -32 -155
-151 -192 -214 -21 -35 -49 -100 -64 -144 -23 -70 -27 -97 -27 -210 -1 -145
15 -211 80 -335 91 -174 268 -311 459 -355 85 -20 240 -21 320 -2 252 60 450
246 523 492 29 95 35 266 13 355 -19 79 -92 226 -144 291 -120 149 -289 236
-504 258 -222 23 -368 66 -434 128 l-26 24 -7 -32z"/>
<path d="M9080 8534 c-83 -17 -230 -90 -296 -146 -108 -92 -179 -196 -220
-323 -21 -65 -28 -111 -35 -245 -14 -271 -41 -398 -99 -478 l-30 -42 73 0 c83
0 151 17 196 49 l30 22 71 -59 c141 -119 287 -173 467 -173 186 -1 349 64 491
195 40 37 43 38 61 22 37 -34 118 -56 202 -56 l80 0 -26 34 c-59 77 -90 221
-104 486 -11 193 -26 257 -86 365 -154 274 -467 415 -775 349z"/>
<path d="M2694 6990 l-150 -5 -79 -39 c-123 -61 -173 -120 -517 -612 -169
-241 -343 -488 -386 -549 l-78 -110 -512 -3 -512 -2 0 135 c0 122 -2 137 -20
155 -11 11 -31 20 -45 20 -14 0 -34 -9 -45 -20 -18 -18 -20 -33 -20 -154 l0
-133 -56 -6 c-314 -32 -375 -470 -85 -606 l56 -26 740 0 740 0 52 24 c72 32
113 80 313 366 l175 249 5 -2679 c6 -2974 -1 -2714 71 -2826 153 -239 559
-215 689 41 51 100 50 59 50 1783 l0 1607 75 0 75 0 0 -1584 c0 -1087 3 -1609
11 -1663 26 -190 147 -314 336 -345 162 -27 335 49 405 179 55 101 58 130 58
595 l0 428 940 0 940 0 0 1185 0 1185 -219 0 -219 0 -4 199 c-3 183 -5 202
-24 227 -31 43 -67 65 -113 71 -34 5 -42 10 -47 32 -31 135 -339 1344 -350
1369 -13 32 -704 1023 -828 1187 -114 152 -214 253 -286 288 -62 31 -71 32
-215 37 -126 4 -151 3 -159 -10 -6 -8 -31 -37 -57 -65 l-47 -50 -23 -515 c-17
-357 -26 -497 -31 -455 -4 33 -19 237 -34 453 l-26 392 22 61 23 61 -29 24
c-16 13 -45 37 -65 54 l-36 29 -62 -57 -63 -57 22 -50 c19 -43 21 -63 17 -145
-10 -204 -50 -766 -55 -780 -3 -8 -16 210 -29 485 l-24 500 -43 45 c-24 25
-49 54 -57 65 -13 19 -22 20 -165 15z m1513 -1559 l152 -218 141 -560 c77
-308 140 -563 140 -567 0 -3 -7 -6 -15 -6 -32 0 -94 -41 -116 -77 -23 -36 -24
-49 -28 -230 l-3 -193 -219 0 -219 0 0 1035 c0 569 3 1035 8 1034 4 0 75 -98
159 -218z m517 -1570 c55 -79 140 -120 253 -121 99 0 172 28 235 91 26 26 48
53 48 59 0 5 5 10 10 10 6 0 10 -60 10 -160 l0 -160 -300 0 -300 0 0 160 c0
88 4 160 9 160 4 0 21 -18 35 -39z"/>
<path d="M8785 6990 l-150 -6 -69 -39 c-95 -55 -210 -165 -310 -298 -46 -62
-222 -309 -390 -549 l-307 -438 -505 0 -504 0 0 130 c0 117 -2 132 -20 150
-26 26 -72 26 -96 -1 -17 -18 -19 -37 -19 -150 l0 -129 -45 -6 c-119 -17 -204
-75 -251 -170 -20 -41 -24 -64 -24 -144 0 -89 2 -99 34 -157 20 -38 51 -76 79
-98 87 -67 68 -66 878 -63 l729 3 44 23 c69 37 119 97 313 374 l183 260 3
-567 2 -567 -136 -516 c-74 -285 -178 -678 -230 -875 -52 -196 -94 -360 -94
-362 0 -3 104 -5 230 -5 l230 0 1 -512 c1 -282 4 -844 8 -1248 6 -735 6 -735
29 -792 34 -83 99 -150 190 -195 73 -37 80 -38 176 -37 115 1 162 15 243 70
56 38 123 127 145 192 10 29 13 310 16 1280 l2 1242 80 0 80 0 0 -1217 c0
-1305 -1 -1263 50 -1366 48 -96 161 -177 277 -198 182 -34 357 49 435 209 l33
67 7 455 c3 250 4 458 1 462 -2 5 419 8 936 8 l941 0 0 1185 0 1185 -219 0
-219 0 -4 188 c-3 157 -6 193 -22 224 -21 43 -65 74 -122 86 l-38 8 -173 684
c-94 377 -179 700 -188 719 -17 35 -722 1044 -829 1186 -97 128 -217 247 -283
280 -54 27 -69 30 -206 35 l-148 5 -16 -24 c-9 -13 -33 -43 -55 -67 l-39 -42
-25 -508 c-13 -279 -27 -510 -29 -513 -3 -2 -5 20 -5 50 0 30 -13 233 -29 453
l-29 399 24 56 23 56 -62 57 c-34 32 -64 57 -67 57 -3 0 -32 -25 -65 -55 l-59
-55 22 -62 22 -62 -20 -285 c-32 -442 -47 -620 -49 -565 -1 28 -12 260 -25
517 l-23 467 -29 28 c-16 15 -43 44 -59 63 l-30 35 -150 -5z m1514 -1566 l144
-206 137 -546 c75 -301 140 -557 144 -568 6 -19 2 -23 -28 -28 -44 -8 -95 -50
-112 -93 -10 -23 -14 -84 -14 -218 l0 -186 -82 3 -82 3 -125 470 -125 470 -6
553 c-3 303 -3 552 0 552 3 -1 70 -93 149 -206z m506 -1551 c52 -79 146 -127
250 -127 102 0 167 26 238 96 32 32 63 58 68 58 5 0 9 -69 9 -160 l0 -160
-300 0 -300 0 0 160 c0 88 4 160 9 160 5 0 17 -12 26 -27z"/>
<path d="M6090 2395 l0 -1187 188 4 c213 5 253 15 324 78 24 21 57 62 73 91
l30 54 0 955 0 955 -27 50 c-34 65 -100 128 -163 157 -45 20 -69 23 -237 26
l-188 4 0 -1187z"/>
<path d="M12170 2395 l0 -1185 160 0 c166 0 241 10 300 40 53 28 106 85 137
148 l28 57 0 935 0 935 -26 56 c-50 107 -127 168 -239 189 -29 5 -122 10 -206
10 l-154 0 0 -1185z"/>
</g>
</svg>
